<?xml version="1.0" encoding="utf-8"?>
<!-- Generator: Adobe Illustrator 16.0.3, SVG Export Plug-In . SVG Version: 6.00 Build 0)  -->
<!DOCTYPE svg PUBLIC "-//W3C//DTD SVG 1.1//EN" "http://www.w3.org/Graphics/SVG/1.1/DTD/svg11.dtd">
<svg version="1.1" id="Orthodox" xmlns="http://www.w3.org/2000/svg" xmlns:xlink="http://www.w3.org/1999/xlink" x="0px" y="0px"
	 width="808px" height="944px" viewBox="0 0 808 944" enable-background="new 0 0 808 944" xml:space="preserve">
<path fill="#1D1D1B" fill-opacity="0.1" d="M667.858,743.396l-55.835-83.748V426.414v-27.446V356.43
	c0-2.874-0.761-71.485-68.614-161.919c-65.69-87.6-109.218-131.374-111.035-133.203l-9.712-9.7l-9.701,9.7
	c-1.829,1.829-45.357,45.603-111.052,133.203c-67.827,90.435-68.613,159.046-68.613,161.919v42.538v27.446v233.235l-55.832,83.748
	H667.858z M228.752,715.942l25.611-38.414h336.589l25.612,38.414H228.752z M376.334,650.081V426.414h92.643v223.667H376.334z
	 M584.581,650.081h-88.167V426.414h88.167V650.081z M584.581,356.43v42.538h-88.167V178.375
	c7.974,10.177,16.225,20.863,25.041,32.602C583.315,293.45,584.581,355.876,584.581,356.43z M422.662,90.925
	c9.43,10.154,25.539,28.134,46.314,53.297v254.746h-92.643V144.23C397.121,119.059,413.232,101.091,422.662,90.925z
	 M260.742,356.492c0-0.616,1.265-63.042,63.122-145.515c8.8-11.729,17.067-22.425,25.028-32.592v220.583h-88.149V356.492z
	 M348.891,426.414v223.667h-88.149V426.414H348.891z"/>
<linearGradient id="SVGID_1_" gradientUnits="userSpaceOnUse" x1="159.4644" y1="377.502" x2="649.8584" y2="377.502">
	<stop  offset="0" style="stop-color:#F2791F"/>
	<stop  offset="1" style="stop-color:#FFDE43"/>
</linearGradient>
<path fill="url(#SVGID_1_)" d="M649.858,723.396l-55.835-83.748V406.414v-27.446V336.43c0-2.874-0.761-71.485-68.614-161.919
	c-65.69-87.6-109.218-131.374-111.035-133.203l-9.712-9.7l-9.7,9.7c-1.83,1.829-45.357,45.603-111.053,133.203
	c-67.827,90.435-68.613,159.046-68.613,161.919v42.538v27.446v233.235l-55.832,83.748H649.858z M210.752,695.942l25.611-38.414
	h336.589l25.612,38.414H210.752z M358.334,630.081V406.414h92.643v223.667H358.334z M566.581,630.081h-88.167V406.414h88.167
	V630.081z M566.581,336.43v42.538h-88.167V158.375c7.974,10.177,16.225,20.863,25.041,32.602
	C565.315,273.45,566.581,335.876,566.581,336.43z M404.662,70.925c9.43,10.154,25.54,28.134,46.315,53.297v254.746h-92.643V124.23
	C379.122,99.059,395.232,81.091,404.662,70.925z M242.742,336.492c0-0.616,1.265-63.042,63.122-145.515
	c8.8-11.729,17.067-22.425,25.028-32.592v220.583h-88.149V336.492z M330.891,406.414v223.667h-88.149V406.414H330.891z"/>
<g>
	<path fill="#9B9B9B" d="M56.333,928.128c-6.977,0-12.497-1.381-16.56-4.141c-4.065-2.76-6.095-6.479-6.095-11.155
		c0-2.454,0.728-4.829,2.185-7.13c1.456-2.3,3.45-4.37,5.98-6.21v-0.46c-1.38-0.843-2.53-1.992-3.45-3.45
		c-0.92-1.455-1.38-3.257-1.38-5.404c0-2.453,0.69-4.543,2.07-6.268c1.38-1.726,2.683-3.008,3.91-3.853v-0.46
		c-1.765-1.533-3.354-3.603-4.772-6.21c-1.419-2.605-2.127-5.596-2.127-8.97c0-2.836,0.498-5.443,1.495-7.82
		c0.995-2.376,2.375-4.428,4.14-6.152c1.763-1.726,3.833-3.065,6.21-4.025c2.375-0.958,4.905-1.438,7.59-1.438
		c1.533,0,2.913,0.135,4.14,0.402c1.225,0.27,2.26,0.595,3.105,0.978h18.745v4.255h-12.88c1.763,1.535,3.22,3.508,4.37,5.923
		s1.725,5.08,1.725,7.992c0,2.838-0.5,5.444-1.495,7.82c-0.997,2.377-2.357,4.428-4.083,6.152c-1.725,1.726-3.757,3.067-6.095,4.025
		c-2.339,0.959-4.85,1.438-7.532,1.438c-1.535,0-3.125-0.19-4.772-0.575c-1.649-0.383-3.125-0.958-4.428-1.725
		c-1.227,0.997-2.282,2.109-3.163,3.335c-0.882,1.227-1.322,2.76-1.322,4.6c0,1.994,0.728,3.7,2.185,5.117
		c1.456,1.42,4.255,2.128,8.395,2.128h11.845c6.21,0,10.791,1.017,13.743,3.047c2.951,2.031,4.428,5.233,4.428,9.603
		c0,2.376-0.615,4.695-1.84,6.958c-1.227,2.261-2.972,4.255-5.232,5.979c-2.262,1.726-5.002,3.105-8.223,4.141
		C63.923,927.61,60.318,928.128,56.333,928.128z M56.908,923.987c3.065,0,5.865-0.402,8.395-1.207c2.53-0.806,4.675-1.86,6.44-3.163
		c1.763-1.305,3.123-2.779,4.083-4.427c0.958-1.65,1.438-3.355,1.438-5.118c0-3.067-1.092-5.232-3.277-6.497
		c-2.185-1.266-5.348-1.897-9.488-1.897H52.653c-0.615,0-1.553-0.058-2.817-0.173c-1.265-0.115-2.627-0.363-4.083-0.747
		c-2.53,1.763-4.37,3.641-5.52,5.635c-1.15,1.992-1.725,3.985-1.725,5.979c0,3.45,1.59,6.248,4.772,8.396
		C46.461,922.913,51.003,923.987,56.908,923.987z M55.528,879.942c1.916,0,3.737-0.363,5.462-1.093
		c1.725-0.728,3.238-1.782,4.542-3.162c1.303-1.38,2.338-3.027,3.105-4.945c0.766-1.915,1.15-4.024,1.15-6.324
		c0-2.301-0.384-4.408-1.15-6.325c-0.767-1.916-1.782-3.525-3.047-4.83c-1.265-1.303-2.78-2.318-4.542-3.048
		c-1.765-0.728-3.604-1.093-5.52-1.093c-1.995,0-3.853,0.365-5.578,1.093c-1.725,0.729-3.24,1.745-4.542,3.048
		c-1.305,1.305-2.339,2.895-3.105,4.772c-0.767,1.879-1.15,4.007-1.15,6.383c0,2.3,0.383,4.409,1.15,6.324
		c0.766,1.918,1.82,3.565,3.163,4.945c1.34,1.38,2.875,2.435,4.6,3.162C51.79,879.579,53.61,879.942,55.528,879.942z"/>
	<path fill="#9B9B9B" d="M96.928,833.022c-1.305,0-2.397-0.421-3.278-1.265c-0.882-0.843-1.322-1.916-1.322-3.221
		c0-1.455,0.44-2.587,1.322-3.393c0.881-0.805,1.973-1.207,3.278-1.207c1.303,0,2.395,0.402,3.277,1.207
		c0.88,0.806,1.323,1.938,1.323,3.393c0,1.305-0.442,2.378-1.323,3.221C99.323,832.602,98.23,833.022,96.928,833.022z
		 M94.283,901.563v-55.2h5.06v55.2H94.283z"/>
	<path fill="#9B9B9B" d="M135.682,902.942c-2.685,0-4.907-0.402-6.67-1.207c-1.765-0.806-3.182-1.936-4.255-3.393
		c-1.075-1.456-1.822-3.221-2.243-5.29c-0.422-2.07-0.632-4.331-0.632-6.785v-35.535h-8.625v-3.91l8.74-0.46l0.69-15.984h4.37
		v15.984h15.985v4.37h-15.985v35.995c0,1.765,0.133,3.354,0.402,4.772c0.268,1.42,0.748,2.645,1.438,3.68s1.628,1.84,2.818,2.415
		c1.188,0.575,2.74,0.862,4.657,0.862c1.073,0,2.243-0.172,3.507-0.517c1.265-0.346,2.396-0.748,3.393-1.208l1.38,4.14
		c-1.61,0.615-3.22,1.111-4.83,1.495C138.211,902.75,136.832,902.942,135.682,902.942z"/>
	<path fill="#9B9B9B" d="M160.635,902.942c-1.304,0-2.455-0.46-3.45-1.38c-0.998-0.92-1.495-2.185-1.495-3.795
		c0-1.686,0.498-2.99,1.495-3.91c0.995-0.92,2.146-1.38,3.45-1.38c1.303,0,2.433,0.46,3.393,1.38c0.958,0.92,1.438,2.225,1.438,3.91
		c0,1.61-0.48,2.875-1.438,3.795C163.068,902.482,161.938,902.942,160.635,902.942z"/>
	<path fill="#9B9B9B" d="M186.394,833.022c-1.305,0-2.397-0.421-3.278-1.265c-0.882-0.843-1.322-1.916-1.322-3.221
		c0-1.455,0.44-2.587,1.322-3.393c0.881-0.805,1.973-1.207,3.278-1.207c1.303,0,2.395,0.402,3.277,1.207
		c0.88,0.806,1.323,1.938,1.323,3.393c0,1.305-0.442,2.378-1.323,3.221C188.789,832.602,187.697,833.022,186.394,833.022z
		 M183.749,901.563v-55.2h5.06v55.2H183.749z"/>
	<path fill="#9B9B9B" d="M230.208,902.942c-3.297,0-6.44-0.652-9.43-1.955c-2.99-1.303-5.617-3.181-7.877-5.635
		c-2.262-2.453-4.064-5.463-5.405-9.027c-1.342-3.565-2.013-7.647-2.013-12.248c0-4.6,0.67-8.72,2.013-12.362
		c1.34-3.641,3.143-6.688,5.405-9.143c2.261-2.452,4.888-4.33,7.877-5.635c2.99-1.303,6.133-1.955,9.43-1.955
		c3.295,0,6.458,0.652,9.487,1.955c3.028,1.305,5.673,3.183,7.935,5.635c2.261,2.455,4.063,5.502,5.405,9.143
		c1.34,3.643,2.012,7.763,2.012,12.362c0,4.601-0.672,8.683-2.012,12.248c-1.342,3.564-3.145,6.574-5.405,9.027
		c-2.262,2.454-4.907,4.332-7.935,5.635C236.666,902.29,233.503,902.942,230.208,902.942z M230.208,898.457
		c2.76,0,5.348-0.593,7.762-1.782c2.415-1.188,4.485-2.855,6.21-5.002c1.725-2.146,3.085-4.716,4.082-7.705
		c0.996-2.99,1.495-6.286,1.495-9.891c0-3.68-0.5-7.015-1.495-10.005c-0.997-2.99-2.357-5.577-4.082-7.763
		c-1.725-2.185-3.795-3.87-6.21-5.06c-2.415-1.188-5.002-1.782-7.762-1.782c-2.76,0-5.33,0.595-7.705,1.782
		c-2.377,1.189-4.428,2.875-6.152,5.06c-1.725,2.186-3.087,4.772-4.083,7.763c-0.998,2.99-1.495,6.325-1.495,10.005
		c0,3.604,0.498,6.9,1.495,9.891c0.995,2.989,2.357,5.56,4.083,7.705c1.725,2.146,3.775,3.814,6.152,5.002
		C224.878,897.864,227.448,898.457,230.208,898.457z"/>
	<path fill="#9B9B9B" d="M262.062,919.963l35.075-100.051h4.37l-35.075,100.051H262.062z"/>
	<path fill="#9B9B9B" d="M334.281,902.942c-3.68,0-7.245-0.672-10.695-2.013c-3.45-1.34-6.498-3.295-9.143-5.864
		c-2.645-2.568-4.754-5.73-6.325-9.488c-1.572-3.755-2.357-8.01-2.357-12.765c0-4.753,0.785-9.008,2.357-12.765
		c1.57-3.756,3.68-6.918,6.325-9.488c2.645-2.567,5.693-4.522,9.143-5.864c3.45-1.341,7.015-2.013,10.695-2.013
		c3.68,0,7.225,0.672,10.637,2.013c3.411,1.342,6.44,3.297,9.085,5.864c2.645,2.57,4.772,5.732,6.383,9.488
		c1.61,3.757,2.415,8.012,2.415,12.765c0,4.755-0.805,9.01-2.415,12.765c-1.61,3.758-3.738,6.92-6.383,9.488
		c-2.645,2.569-5.674,4.524-9.085,5.864C341.506,902.271,337.961,902.942,334.281,902.942z M334.281,887.072
		c2.99,0,5.117-1.283,6.382-3.853c1.265-2.567,1.897-6.037,1.897-10.407s-0.632-7.838-1.897-10.407
		c-1.265-2.568-3.393-3.853-6.382-3.853c-2.99,0-5.118,1.284-6.383,3.853c-1.265,2.569-1.897,6.037-1.897,10.407
		s0.633,7.84,1.897,10.407C329.164,885.789,331.291,887.072,334.281,887.072z"/>
	<path fill="#9B9B9B" d="M373.15,901.563v-57.5h16.1l1.38,9.89h0.46c2.146-3.909,4.695-6.765,7.647-8.567
		c2.95-1.8,5.846-2.702,8.682-2.702c1.764,0,3.182,0.097,4.256,0.287c1.072,0.192,2.029,0.48,2.875,0.862l-3.221,17.021
		c-1.074-0.23-2.09-0.44-3.047-0.633c-0.959-0.19-2.09-0.287-3.393-0.287c-2.069,0-4.237,0.71-6.497,2.127
		c-2.262,1.42-4.083,3.931-5.462,7.533v31.97H373.15z"/>
	<path fill="#9B9B9B" d="M444.91,902.942c-3.758,0-6.957-0.557-9.602-1.667c-2.646-1.111-4.83-2.703-6.557-4.772
		c-1.725-2.07-2.988-4.543-3.795-7.418c-0.805-2.875-1.207-6.075-1.207-9.603v-20.01h-7.59v-14.72l8.74-0.69l2.301-14.95h16.33
		v14.95h13.109v15.41h-13.109v19.665c0,3.22,0.689,5.425,2.068,6.612c1.381,1.189,2.99,1.782,4.83,1.782
		c0.92,0,1.82-0.095,2.703-0.287c0.881-0.19,1.668-0.402,2.357-0.633l2.99,14.26c-1.535,0.46-3.375,0.921-5.52,1.381
		C450.813,902.713,448.131,902.942,444.91,902.942z"/>
	<path fill="#9B9B9B" d="M467.221,901.563v-80.04H487v18.63l-0.92,9.891c1.992-1.764,4.389-3.431,7.188-5.003
		c2.799-1.57,6.152-2.357,10.063-2.357c6.285,0,10.848,2.127,13.686,6.383c2.836,4.255,4.254,9.947,4.254,17.077v35.42H501.49
		v-32.89c0-3.681-0.459-6.133-1.381-7.36c-0.92-1.226-2.377-1.84-4.369-1.84c-1.84,0-3.375,0.385-4.6,1.149
		c-1.229,0.768-2.607,1.841-4.141,3.221v37.72H467.221z"/>
	<path fill="#9B9B9B" d="M559.678,902.942c-3.68,0-7.244-0.672-10.695-2.013c-3.449-1.34-6.496-3.295-9.143-5.864
		c-2.645-2.568-4.754-5.73-6.324-9.488c-1.572-3.755-2.357-8.01-2.357-12.765c0-4.753,0.785-9.008,2.357-12.765
		c1.57-3.756,3.68-6.918,6.324-9.488c2.646-2.567,5.693-4.522,9.143-5.864c3.451-1.341,7.016-2.013,10.695-2.013
		s7.225,0.672,10.639,2.013c3.41,1.342,6.439,3.297,9.084,5.864c2.645,2.57,4.773,5.732,6.383,9.488
		c1.609,3.757,2.414,8.012,2.414,12.765c0,4.755-0.805,9.01-2.414,12.765c-1.609,3.758-3.738,6.92-6.383,9.488
		c-2.645,2.569-5.674,4.524-9.084,5.864C566.902,902.271,563.357,902.942,559.678,902.942z M559.678,887.072
		c2.99,0,5.117-1.283,6.383-3.853c1.266-2.567,1.898-6.037,1.898-10.407s-0.633-7.838-1.898-10.407
		c-1.266-2.568-3.393-3.853-6.383-3.853s-5.117,1.284-6.383,3.853c-1.264,2.569-1.896,6.037-1.896,10.407s0.633,7.84,1.896,10.407
		C554.561,885.789,556.688,887.072,559.678,887.072z"/>
	<path fill="#9B9B9B" d="M619.479,902.942c-3.605,0-6.842-0.689-9.717-2.07c-2.875-1.38-5.33-3.372-7.361-5.979
		c-2.031-2.605-3.604-5.768-4.715-9.487c-1.111-3.718-1.668-7.915-1.668-12.593c0-4.676,0.672-8.893,2.014-12.65
		c1.34-3.755,3.105-6.918,5.289-9.487c2.186-2.567,4.695-4.542,7.533-5.922c2.836-1.381,5.711-2.07,8.625-2.07
		c3.143,0,5.711,0.518,7.705,1.553c1.992,1.034,3.871,2.435,5.635,4.197l-0.689-8.28v-18.63h19.779v80.04h-16.1l-1.381-5.29h-0.459
		c-1.994,1.994-4.275,3.604-6.844,4.83S622.008,902.942,619.479,902.942z M624.768,886.843c1.533,0,2.875-0.288,4.025-0.862
		c1.15-0.575,2.262-1.668,3.336-3.278v-21.159c-1.15-1.073-2.416-1.801-3.795-2.186c-1.381-0.383-2.723-0.575-4.025-0.575
		c-2.07,0-3.93,1.035-5.578,3.105c-1.648,2.069-2.473,5.635-2.473,10.694c0,5.215,0.748,8.895,2.242,11.04
		C619.996,885.77,622.084,886.843,624.768,886.843z"/>
	<path fill="#9B9B9B" d="M690.777,902.942c-3.682,0-7.246-0.672-10.695-2.013c-3.451-1.34-6.498-3.295-9.143-5.864
		c-2.645-2.568-4.754-5.73-6.326-9.488c-1.572-3.755-2.357-8.01-2.357-12.765c0-4.753,0.785-9.008,2.357-12.765
		c1.572-3.756,3.682-6.918,6.326-9.488c2.645-2.567,5.691-4.522,9.143-5.864c3.449-1.341,7.014-2.013,10.695-2.013
		c3.68,0,7.225,0.672,10.637,2.013c3.41,1.342,6.439,3.297,9.086,5.864c2.645,2.57,4.771,5.732,6.381,9.488
		c1.611,3.757,2.416,8.012,2.416,12.765c0,4.755-0.805,9.01-2.416,12.765c-1.609,3.758-3.736,6.92-6.381,9.488
		c-2.646,2.569-5.676,4.524-9.086,5.864C698.002,902.271,694.457,902.942,690.777,902.942z M690.777,887.072
		c2.99,0,5.117-1.283,6.381-3.853c1.266-2.567,1.898-6.037,1.898-10.407s-0.633-7.838-1.898-10.407
		c-1.264-2.568-3.391-3.853-6.381-3.853s-5.119,1.284-6.383,3.853c-1.266,2.569-1.898,6.037-1.898,10.407s0.633,7.84,1.898,10.407
		C685.658,885.789,687.787,887.072,690.777,887.072z"/>
	<path fill="#9B9B9B" d="M721.137,901.563l17.25-29.9l-16.33-27.6h21.16l4.139,8.05c0.766,1.61,1.533,3.26,2.301,4.945
		c0.766,1.688,1.533,3.335,2.299,4.945h0.461c0.535-1.61,1.109-3.258,1.725-4.945c0.613-1.686,1.188-3.335,1.725-4.945l2.76-8.05
		h20.471l-16.33,29.9l17.25,27.6h-21.16l-4.6-8.05c-0.844-1.61-1.688-3.258-2.529-4.945c-0.846-1.686-1.688-3.335-2.531-4.945
		h-0.459c-0.615,1.61-1.266,3.24-1.955,4.888c-0.689,1.649-1.342,3.317-1.955,5.003l-3.221,8.05H721.137z"/>
</g>
</svg>
